PathFileType	4	(X/Y/Z)	D:\Long Term Storage\D'Arcy Smith\Coord13.trc
DataRate	CameraRate	NumFrames	NumMarkers	Units	OrigDataRate	OrigDataStartFrame	OrigNumFrames
120.00	120.00	      146	4	mm	120.00	1199	      4795
Frame#	Time	M1			M2			M3			M4			
		X1	Y1	Z1	X2	Y2	Z2	X3	Y3	Z3	X4	Y4	Z4	

1199	9.983	1032.99622	292.89972	305.13828	1645.68579	282.99103	607.55646							
1200	9.992	1033.14331	295.71576	298.28137	1645.73938	285.98859	615.45099							
1201	10.000	1033.06189	298.41141	291.39996	1645.98364	288.81192	622.49377							
1202	10.008	1033.14233	301.17776	284.62064	1646.28943	291.62497	628.71741							
1203	10.017	1032.21936	304.69916	277.39453	1646.41321	294.33011	635.12506							
1204	10.025	1032.99255	307.05258	271.10269	1646.46826	296.94952	640.83551							
1205	10.033	1032.99951	309.77051	264.87311	1646.12085	298.72635	646.19543							
1206	10.042	1033.18018	312.36407	258.60309	1646.60754	301.28448	650.96753							
1207	10.050	1032.86682	314.81836	252.90097	1646.67615	303.23715	655.01172							
1208	10.058	1032.92798	317.22714	247.37059	1646.91431	305.06989	658.77838							
1209	10.067	1031.92822	319.65628	242.25610	1646.99622	306.55597	661.85333							
1210	10.075	1032.22168	322.13782	237.41573	1647.90454	308.55698	664.37048							
1211	10.083	1031.83362	323.95190	233.03053	1647.73865	309.14444	666.55920							
1212	10.092	1032.55518	325.87796	229.04701	1648.55017	310.28876	668.41223							
1213	10.100	1031.46252	327.79868	225.33748	1648.95789	310.83444	669.85260							
1214	10.108	1031.61902	329.77997	222.01202	1649.33252	311.05356	670.89941							
1215	10.117	1031.14014	331.06805	219.23094	1649.51819	311.07532	671.62988							
1216	10.125	1030.98450	332.28250	216.96417	1649.77551	310.82901	671.96118							
1217	10.133	1030.76404	333.45670	214.95425	1649.44788	309.82065	672.12970							
1218	10.142	1030.89880	334.56491	213.41879	1649.72791	309.22763	671.87445							
1219	10.150	1030.67175	335.19394	212.25780	1649.90552	308.44800	671.25214							
1220	10.158	1030.42712	335.63922	211.57767	1649.33948	307.43463	670.32806							
1221	10.167	1029.81213	335.44284	211.50012	1650.27368	306.61493	669.22607							
1222	10.175	1029.96240	335.68277	211.55566	1650.63684	305.58627	667.73297							
1223	10.183	1029.70337	335.36447	212.19556	1650.88013	304.38107	666.07635							
1224	10.192	1029.39917	334.76364	213.16855	1651.12598	303.12119	664.31250							
1225	10.200	1028.92261	333.80011	214.53770	1651.41284	301.82343	662.20520							
1226	10.208	1028.79565	332.79742	215.98979	1651.68030	300.50049	660.09497							
1227	10.217	1029.16296	331.88995	217.71764	1651.96069	299.00278	657.73944							
1228	10.225	1028.58545	330.30637	219.96280	1652.09399	297.67068	655.26709							
1229	10.233	1028.79651	329.08685	222.28778	1652.95227	296.91437	652.64355							
1230	10.242	1028.49939	327.20755	224.96683	1651.90076	294.53033	650.06519							
1231	10.250	1028.84009	325.69894	227.65750	1652.64758	293.59906	647.36603							
1232	10.258	1028.58032	323.48712	230.79263	1652.78271	292.15082	644.49304							
1233	10.267	1028.69385	321.47150	234.03662	1652.85120	291.04138	641.56720							
1234	10.275	1029.21008	319.67178	237.28349	1652.95874	289.70670	638.45447							
1235	10.283	1029.00916	317.22156	241.04088	1652.24011	288.20160	635.21558							
1236	10.292	1030.77063	314.75720	244.67603	1652.72424	287.87680	632.11768							
1237	10.300	1030.57239	312.63074	248.63701	1652.19092	286.11737	628.47076							
1238	10.308	1030.98401	310.24570	252.53801	1653.09143	286.41272	625.04718							
1239	10.317	1031.03223	307.39117	256.83859	1652.09875	285.20468	621.35699							
1240	10.325	1031.73474	305.19492	260.98508	1651.68408	283.92651	616.96313							
1241	10.333	1031.74805	302.29163	265.43832	1651.23096	282.99347	612.43665							
1242	10.342	1032.65747	299.80740	270.13107	1650.68457	282.10220	607.56238							
1243	10.350	1033.51794	296.44025	275.42212	1650.00830	280.84787	602.24371							
1244	10.358	1033.92993	293.52942	280.49023	1649.44214	279.77188	596.44147							
1245	10.367	1034.67944	290.61725	285.79095	1648.58862	278.45172	590.24115							
1246	10.375	1035.07764	287.43619	291.44717	1648.09338	277.64401	583.77820							
1247	10.383	1035.71729	284.30200	297.33899	1646.91516	276.06979	576.61536							
1248	10.392	1036.36902	281.06827	303.73618	1646.22351	274.96970	569.07898							
1249	10.400	1037.10107	277.91385	310.45850	1645.34277	273.78180	561.08209							
1250	10.408	1037.65576	275.19119	317.07419	1644.43640	272.73874	552.62830							
1251	10.417	1037.98035	272.01230	325.04669	1643.52625	271.70956	543.75507							
1252	10.425	1038.45667	268.90729	332.94965	1642.57544	270.77689	534.34052							
1253	10.433	1039.01746	265.84293	341.49594	1641.63855	269.89456	524.55768							
1254	10.442	1039.55823	262.97437	350.33478	1640.63782	269.20505	514.06897							
1255	10.450	1040.00232	259.91394	360.07736	1639.66650	268.72229	503.13684							
1256	10.458	1040.32080	257.62610	369.68222	1638.61865	268.31308	491.75912							
1257	10.467	1040.58948	255.46196	379.66916	1637.64050	268.21445	480.03662							
1258	10.475	1040.70496	253.54724	389.88223	1636.60730	268.10843	467.30801							
1259	10.483	1041.01709	252.17227	400.17032	1635.56909	268.46158	454.87573							
1260	10.492	1041.00024	250.99019	410.44788	1634.60461	269.16055	442.20801							
1261	10.500	1040.95203	250.32109	420.65100	1633.66345	270.21469	429.33917							
1262	10.508	1040.75659	249.53171	430.72568	1632.65137	271.71054	416.42145							
1263	10.517	1040.59363	249.26706	440.93274	1631.80164	273.69208	403.46625							
1264	10.525	1040.57227	249.38548	450.56339	1630.76099	276.04385	390.61862							
1265	10.533	1040.31653	249.74551	460.02142	1629.78296	278.82404	377.86670							
1266	10.542	1039.95239	250.38036	469.14383	1628.83228	282.07510	365.41528							
1267	10.550	1039.85730	251.11345	478.00119	1627.91772	285.65585	353.05310							
1268	10.558	1039.41211	251.95872	486.20746	1627.06799	289.73660	341.06650							
1269	10.567	1038.97607	253.03677	494.25821	1626.19189	294.02689	330.07709							
1270	10.575	1038.64233	254.08374	501.91980	1625.47717	298.44019	318.69031							
1271	10.583	1038.04114	255.29620	508.97842	1625.31091	303.28583	308.07376							
1272	10.592	1037.44446	256.49225	515.67871	1624.71375	308.32761	297.56946							
1273	10.600	1037.21936	257.74631	521.91260	1624.48914	313.24448	287.88138							
1274	10.608	1036.29065	258.84155	527.65955	1624.14844	318.67178	278.61655							
1275	10.617	1035.54749	259.94806	532.96387	1623.89551	323.77982	270.08041							
1276	10.625	1034.95398	261.04074	537.86127	1623.78113	328.78885	262.11542							
1277	10.633	1034.18372	262.00616	542.33954	1623.56519	333.58148	254.80376							
1278	10.642	1033.24866	262.99753	546.06714	1623.60352	338.21582	248.38005							
1279	10.650	1032.32336	263.98822	549.67938	1623.40637	342.48837	242.34447							
1280	10.658	1031.43335	264.61356	552.40637	1623.51233	346.43463	237.15707							
1281	10.667	1030.46387	265.14401	555.05292	1623.70654	350.04443	232.70039							
1282	10.675	1029.06421	266.30640	556.34082	1624.12512	353.41650	228.94217							
1283	10.683	1028.02563	266.78748	558.03473	1624.44385	356.06229	225.98309							
1284	10.692	1027.15515	267.09924	559.02045	1624.87402	358.29388	223.65143							
1285	10.700	1026.27344	267.27957	559.69238	1625.35852	359.94641	221.99109							
1286	10.708	1025.92969	266.89151	560.57184	1626.04004	361.26538	220.89780							
1287	10.717	1025.07166	266.90332	560.46356	1626.73694	361.94971	220.34204							
1288	10.725	1024.09814	266.70718	559.80914	1627.48828	362.12271	220.51462							
1289	10.733	1023.06537	266.44855	558.70935	1628.32861	361.72089	221.22588							
1290	10.742	1022.35168	266.09927	557.46979	1629.13818	360.83664	222.47491							
1291	10.750	1021.51196	265.75745	555.58325	1629.89478	359.43399	224.01184							
1292	10.758	1020.64050	265.09442	553.07446	1630.83044	357.64862	226.29640							
1293	10.767	1020.08807	264.50854	550.68500	1631.75439	355.30441	228.82210							
1294	10.775	1019.21411	263.75912	547.68640	1632.65503	352.73605	232.00581							
1295	10.783	1018.59430	262.93747	544.33240	1633.28809	349.63904	235.60066							
1296	10.792	1017.81586	262.07315	541.01532	1633.80359	346.24808	239.58681							
1297	10.800	1017.35736	261.15964	537.11554	1634.41553	342.59821	243.92996							
1298	10.808	1016.69666	260.19724	532.99353	1634.88293	338.70337	248.67487							
1299	10.817	1016.09229	259.40662	528.90125	1635.39624	334.45981	253.73331							
1300	10.825	1015.87225	258.35599	524.50671	1635.78027	330.02246	259.26303							
1301	10.833	1015.34204	257.43506	519.88593	1636.21094	325.28329	265.17676							
1302	10.842	1015.06030	256.53900	515.20673	1636.49927	320.41327	271.41577							
1303	10.850	1014.33673	256.29388	509.92242	1636.70947	315.46411	278.18555							
1304	10.858	1014.16235	255.03372	505.29208	1636.82825	310.47742	285.31097							
1305	10.867	1014.34607	254.25621	500.45929	1636.73315	305.39304	292.78961							
1306	10.875	1013.93817	253.63252	495.41003	1636.61206	300.36481	300.52072							
1307	10.883	1013.86414	253.25940	490.24933	1635.90503	295.72031	308.79291							
1308	10.892	1013.50952	252.61412	485.40845	1635.56116	290.78888	317.39819							
1309	10.900	1013.44952	252.52013	480.26791	1635.13733	286.10300	326.32443							
1310	10.908	1013.57507	252.23413	475.27679	1634.75232	281.44687	335.64343							
1311	10.917	1013.50000	251.87566	469.98550	1634.55908	277.09375	344.35599							
1312	10.925	1013.61426	252.04965	465.13126	1634.05579	272.90665	354.38339							
1313	10.933	1013.62878	252.00354	460.08170	1633.66565	269.06064	364.61813							
1314	10.942	1013.73242	252.23204	455.06302	1633.13232	265.40759	375.12054							
1315	10.950	1013.71429	252.35468	450.17221	1632.66943	262.29422	385.86594							
1316	10.958	1014.00842	252.75136	445.28372	1631.87158	259.60092	396.85330							
1317	10.967	1014.05450	253.02327	440.49100	1631.16797	257.30927	407.92957							
1318	10.975	1014.58722	253.49809	435.38614	1630.28711	255.38960	419.09555							
1319	10.983	1014.83569	253.91853	430.37332	1629.33325	253.88461	430.27951							
1320	10.992	1015.31134	254.74950	425.47217	1628.50049	252.81390	441.51880							
1321	11.000	1015.74725	255.41486	420.47546	1627.62305	251.98416	452.62344							
1322	11.008	1016.28589	256.27902	415.58920	1626.99817	251.42039	463.58176							
1323	11.017	1016.80029	257.16269	410.46063	1626.32471	251.21280	475.22760							
1324	11.025	1017.59448	258.15359	405.61166	1625.57849	250.86884	486.09537							
1325	11.033	1018.11658	259.28049	400.35889	1625.37695	251.30984	496.61066							
1326	11.042	1019.03937	260.60220	395.23834	1625.17529	251.70389	506.95636							
1327	11.050	1019.38599	261.72028	390.48306	1624.70239	252.37283	517.39069							
1328	11.058	1020.24762	263.02185	385.21964	1624.39026	253.33479	527.58868							
1329	11.067	1020.75378	263.94556	380.03400	1624.45508	255.08107	537.59033							
1330	11.075	1021.46490	265.51035	374.86115	1623.69836	256.47748	547.31696							
1331	11.083	1022.19922	266.56577	369.66275	1623.68384	258.57837	556.92249							
1332	11.092	1023.05829	268.09918	364.35782	1623.23523	260.74905	566.12085							
1333	11.100	1023.78223	269.50082	359.26331	1623.22693	263.06299	575.06268							
1334	11.108	1024.74109	271.24695	353.93005	1622.95667	265.35617	583.62634							
1335	11.117	1025.61792	272.98404	348.55063	1623.03821	267.84848	591.95801							
1336	11.125	1026.50635	274.83386	343.34598	1623.19507	270.34387	599.89526							
1337	11.133	1027.37781	276.79364	337.78378	1623.30115	272.78052	607.49719							
1338	11.142	1028.24097	278.79553	332.33853	1623.53723	275.34286	615.02448							
1339	11.150	1029.18591	280.93411	326.76761	1623.74731	277.67728	621.37891							
1340	11.158	1030.05457	283.53458	319.90573	1624.05115	280.14529	628.18829							
1341	11.167	1030.84851	285.86420	314.25134	1624.43018	282.54074	634.56647							
1342	11.175	1032.13940	288.22583	308.45203	1625.34058	285.26254	640.82867							
1343	11.183	1033.34717	290.66394	302.64828	1625.78577	287.46732	646.60474							
1344	11.192	1034.37976	292.99548	296.79822	1626.22900	289.60443	652.05011							
